<?xml version="1.0" encoding="UTF-8" standalone="no"?>
<!-- Created with Inkscape (http://www.inkscape.org/) -->

<svg
 xmlns:dc="http://purl.org/dc/elements/1.1/"
 xmlns:cc="http://creativecommons.org/ns#"
 xmlns:rdf="http://www.w3.org/1999/02/22-rdf-syntax-ns#"
 xmlns:svg="http://www.w3.org/2000/svg"
 xmlns="http://www.w3.org/2000/svg"
 xmlns:sodipodi="http://sodipodi.sourceforge.net/DTD/sodipodi-0.dtd"
 xmlns:inkscape="http://www.inkscape.org/namespaces/inkscape"
 width="612.49677mm"
 height="263.80759mm"
 viewBox="0 0 612.49677 263.80759"
 version="1.1"
 id="svg8"
 inkscape:version="0.92.3 (2405546, 2018-03-11)"
 sodipodi:docname="SYP.svg">
<defs
 id="defs2" />
<sodipodi:namedview
 id="base"
 pagecolor="#ffffff"
 bordercolor="#666666"
 borderopacity="1.0"
 inkscape:pageopacity="0.0"
 inkscape:pageshadow="2"
 inkscape:zoom="0.16891393"
 inkscape:cx="2153.3476"
 inkscape:cy="-87.354311"
 inkscape:document-units="mm"
 inkscape:current-layer="g1547"
 showgrid="true"
 inkscape:pagecheckerboard="true"
 showborder="false"
 inkscape:snap-bbox="false"
 inkscape:bbox-nodes="true"
 inkscape:snap-intersection-paths="true"
 inkscape:snap-smooth-nodes="true"
 inkscape:snap-midpoints="true"
 inkscape:object-paths="true"
 fit-margin-top="0"
 fit-margin-left="0"
 fit-margin-right="0"
 fit-margin-bottom="0"
 inkscape:window-width="1920"
 inkscape:window-height="1057"
 inkscape:window-x="-8"
 inkscape:window-y="-8"
 inkscape:window-maximized="1">
<inkscape:grid
 type="xygrid"
 id="grid815"
 spacingx="26.458333"
 spacingy="26.458333"
 originx="417.54679"
 originy="-132.29166" />
</sodipodi:namedview>
<metadata
 id="metadata5">
<rdf:RDF>
<cc:Work
 rdf:about="">
<dc:format>image/svg+xml</dc:format>
<dc:type
 rdf:resource="http://purl.org/dc/dcmitype/StillImage" />
<dc:title></dc:title>
</cc:Work>
</rdf:RDF>
</metadata>
<g
 inkscape:label="レイヤー 1"
 inkscape:groupmode="layer"
 id="layer1"
 transform="translate(417.5468,99.099258)">
<g
 id="g1547"
 transform="translate(-17.251858,-12.954026)">
<g
 id="g1647">
<path
 style="fill:#292b35;fill-opacity:1;stroke:none;stroke-width:0.26458332px;stroke-linecap:butt;stroke-linejoin:miter;stroke-opacity:1"
 d="M 17.251863,177.66236 H 43.710191 V 151.20403 Z"
 id="path1609"
 inkscape:connector-curvature="0" />
<g
 transform="translate(-1.541185)"
 id="g1627">
<path
 style="fill:#292b35;fill-opacity:1;stroke:none;stroke-width:0.26458332px;stroke-linecap:butt;stroke-linejoin:miter;stroke-opacity:1"
 d="m -115.0398,177.66236 h 26.458329 v -26.45833 z"
 id="path1607"
 inkscape:connector-curvature="0" />
<g
 id="g1605"
 transform="translate(-3.922736,1.14356)">
<path
 inkscape:connector-curvature="0"
 id="path1589"
 d="m -35.664808,-86.920969 h 26.4583333 v 26.458333 z"
 style="fill:#292b35;fill-opacity:1;stroke:none;stroke-width:0.26458332px;stroke-linecap:butt;stroke-linejoin:miter;stroke-opacity:1" />
<g
 transform="translate(-18.237597)"
 id="g1587">
<path
 style="fill:#292b35;fill-opacity:1;stroke:none;stroke-width:0.26458332px;stroke-linecap:butt;stroke-linejoin:miter;stroke-opacity:1"
 d="m -167.95647,-86.920969 h 26.45833 v 26.458333 z"
 id="path1573"
 inkscape:connector-curvature="0" />
<g
 id="g1571"
 transform="translate(15.588298,16.698931)">
<path
 inkscape:connector-curvature="0"
 id="path1549"
 d="m -264.58333,-20.499996 h 26.45834 v -26.458333 l -26.45834,26.458333"
 style="fill:#292b35;fill-opacity:1;stroke:none;stroke-width:0.26458332px;stroke-linecap:butt;stroke-linejoin:miter;stroke-opacity:1"
 transform="translate(17.251858,12.954026)" />
<path
 style="fill:#292b35;fill-opacity:1;stroke:none;stroke-width:0.26458332px;stroke-linecap:butt;stroke-linejoin:miter;stroke-opacity:1"
 d="m -370.41666,58.875003 h 26.45833 v 26.458333 z"
 id="path1536"
 inkscape:connector-curvature="0" />
<g
 id="text823"
 style="font-style:normal;font-weight:normal;font-size:375.25973511px;line-height:1.25;font-family:sans-serif;letter-spacing:0px;word-spacing:0px;fill:#292b35;fill-opacity:1;stroke:none;stroke-width:9.38149357"
 aria-label="SYP"
 transform="translate(4.693261,-4.888457)">
<path
 inkscape:connector-curvature="0"
 id="path1514"
 style="font-style:normal;font-variant:normal;font-weight:normal;font-stretch:normal;font-family:'Moon 2.0';-inkscape-font-specification:'Moon 2.0, ';fill:#292b35;fill-opacity:1;stroke-width:9.38149357"
 d="m -284.48217,164.70833 c -33.02286,0 -52.91162,-13.88461 -64.16942,-25.1424 -13.88461,-14.63513 -21.76506,-34.14864 -21.76506,-54.037406 0,-12.008311 9.75675,-21.765064 21.76506,-21.765064 12.00832,0 21.76507,9.756753 21.76507,21.765064 0,13.134091 9.00623,35.649676 42.40435,35.649676 33.39812,0 42.40435,-22.515585 42.40435,-35.649676 0,-19.888766 -10.88253,-25.892922 -47.65799,-36.400194 -16.51143,-4.878377 -33.39811,-9.756753 -47.28272,-19.513506 -18.76299,-12.758831 -28.14448,-30.7712987 -28.14448,-54.037402 0,-18.762987 7.50519,-37.150714 20.26402,-50.660064 10.50727,-10.882533 29.64552,-23.641364 60.41682,-23.641364 31.14656,0 49.90954,12.758831 60.41682,23.641364 13.13409,13.50935 20.63928,31.897077 20.63928,50.660064 0,12.008311 -9.75675,21.7650644 -22.14032,21.7650644 -12.00831,0 -21.76507,-9.7567534 -21.76507,-21.7650644 0,-11.257792 -7.88045,-30.771299 -37.15071,-30.771299 -29.27026,0 -37.15071,19.513507 -37.15071,30.771299 0,14.6351294 5.62889,20.2640254 43.90538,31.5218175 17.26195,4.8783765 35.27442,10.1320125 49.90955,20.6392855 19.51351,13.50935 29.27026,33.022857 29.27026,57.789999 0,19.888766 -7.88046,39.402276 -21.76507,54.037406 -10.88253,11.25779 -31.14655,25.1424 -64.16941,25.1424 z" />
<path
 inkscape:connector-curvature="0"
 id="path1516"
 style="font-style:normal;font-variant:normal;font-weight:normal;font-stretch:normal;font-family:'Moon 2.0';-inkscape-font-specification:'Moon 2.0, ';fill:#292b35;fill-opacity:1;stroke-width:9.38149357"
 d="m 1.108082,-94.971408 c -10.1320128,-6.754672 -23.641363,-4.127858 -30.396039,5.628896 L -86.702696,-5.6595915 -143.74218,-89.342512 c -6.75467,-9.756754 -20.26402,-12.383568 -30.39603,-5.628896 -9.75676,6.754675 -12.38358,20.264025 -5.6289,30.396038 l 71.29935,104.322206 V 142.94326 c 0,12.00832 9.756752,21.76507 21.765064,21.76507 12.383571,0 22.140324,-9.75675 22.140324,-21.76507 V 39.746836 L 6.7369781,-64.57537 C 13.491653,-74.707383 10.864835,-88.216733 1.108082,-94.971408 Z" />
<path
 inkscape:connector-curvature="0"
 id="path1518"
 style="font-style:normal;font-variant:normal;font-weight:normal;font-stretch:normal;font-family:'Moon 2.0';-inkscape-font-specification:'Moon 2.0, ';fill:#292b35;fill-opacity:1;stroke-width:9.38149357"
 d="M 120.3058,-99.099266 H 47.130153 c -12.008311,0 -21.765064,9.756754 -21.765064,21.765065 V 142.568 c 0,12.38358 9.756753,22.14033 21.765064,22.14033 12.008312,0 21.765065,-9.75675 21.765065,-22.14033 V 91.90794 H 120.3058 c 52.53636,0 95.31597,-42.77961 95.31597,-95.6912328 0,-52.5363632 -42.77961,-95.3159732 -95.31597,-95.3159732 z m 0,147.101817 H 68.895218 V -55.193877 H 120.3058 c 28.51974,0 51.78584,22.890844 51.78584,51.4105842 0,28.8949998 -23.2661,51.7858438 -51.78584,51.7858438 z" />
</g>
<g
 id="text819"
 style="font-style:normal;font-weight:normal;font-size:375.25973511px;line-height:1.25;font-family:sans-serif;letter-spacing:0px;word-spacing:0px;fill:#ffffff;fill-opacity:1;stroke:none;stroke-width:9.38149357"
 aria-label="SYP"
 transform="translate(4.693268,-4.11273)">
<path
 inkscape:connector-curvature="0"
 id="path1521"
 style="font-style:normal;font-variant:normal;font-weight:normal;font-stretch:normal;font-family:'Moon 2.0';-inkscape-font-specification:'Moon 2.0, ';fill:#ffffff;fill-opacity:1;stroke-width:9.38149357"
 d="m -310.94051,163.9326 c -33.02286,0 -52.91163,-13.88461 -64.16942,-25.1424 -13.88461,-14.63513 -21.76506,-34.14864 -21.76506,-54.037402 0,-12.008312 9.75675,-21.765065 21.76506,-21.765065 12.00831,0 21.76507,9.756753 21.76507,21.765065 0,13.134091 9.00623,35.649672 42.40435,35.649672 33.39811,0 42.40435,-22.515581 42.40435,-35.649672 0,-19.888766 -10.88254,-25.892922 -47.65799,-36.400194 -16.51143,-4.878377 -33.39812,-9.756754 -47.28273,-19.513507 -18.76298,-12.758831 -28.14448,-30.771298 -28.14448,-54.037402 0,-18.762986 7.5052,-37.150713 20.26403,-50.660064 10.50727,-10.882532 29.64552,-23.641363 60.41682,-23.641363 31.14655,0 49.90954,12.758831 60.41681,23.641363 13.13409,13.509351 20.63929,31.897078 20.63929,50.660064 0,12.008312 -9.75675,21.7650651 -22.14033,21.7650651 -12.00831,0 -21.76506,-9.7567531 -21.76506,-21.7650651 0,-11.257792 -7.88045,-30.771298 -37.15071,-30.771298 -29.27026,0 -37.15072,19.513506 -37.15072,30.771298 0,14.63513 5.6289,20.2640261 43.90539,31.5218182 17.26195,4.8783768 35.27442,10.1320128 49.90955,20.6392858 19.5135,13.50935 29.27026,33.022856 29.27026,57.789999 0,19.888762 -7.88046,39.402272 -21.76507,54.037402 -10.88253,11.25779 -31.14656,25.1424 -64.16941,25.1424 z" />
<path
 inkscape:connector-curvature="0"
 id="path1523"
 style="font-style:normal;font-variant:normal;font-weight:normal;font-stretch:normal;font-family:'Moon 2.0';-inkscape-font-specification:'Moon 2.0, ';fill:#ffffff;fill-opacity:1;stroke-width:9.38149357"
 d="m -25.350261,-95.747135 c -10.132013,-6.754675 -23.641364,-4.127857 -30.396039,5.628896 l -57.41474,83.6829212 -57.03948,-83.6829212 c -6.75467,-9.756753 -20.26402,-12.383571 -30.39604,-5.628896 -9.75675,6.754675 -12.38357,20.264026 -5.62889,30.396039 L -134.9261,38.97111 v 103.19643 c 0,12.00831 9.75675,21.76506 21.76506,21.76506 12.38357,0 22.140325,-9.75675 22.140325,-21.76506 V 38.97111 l 71.29935,-104.322206 c 6.754675,-10.132013 4.127857,-23.641364 -5.628896,-30.396039 z" />
<path
 inkscape:connector-curvature="0"
 id="path1525"
 style="font-style:normal;font-variant:normal;font-weight:normal;font-stretch:normal;font-family:'Moon 2.0';-inkscape-font-specification:'Moon 2.0, ';fill:#ffffff;fill-opacity:1;stroke-width:9.38149357"
 d="M 93.847458,-99.874992 H 20.67181 c -12.0083119,0 -21.765065,9.756753 -21.765065,21.765065 V 141.79228 c 0,12.38357 9.7567531,22.14032 21.765065,22.14032 12.008311,0 21.765064,-9.75675 21.765064,-22.14032 V 91.132213 h 51.410584 c 52.536362,0 95.315972,-42.779609 95.315972,-95.6912321 0,-52.5363629 -42.77961,-95.3159729 -95.315972,-95.3159729 z m 0,147.101816 H 42.436874 V -55.969603 h 51.410584 c 28.519742,0 51.785842,22.890844 51.785842,51.4105839 0,28.8949991 -23.2661,51.7858431 -51.785842,51.7858431 z" />
</g>
</g>
</g>
</g>
</g>
</g>
</g>
</g>
</svg>
