<?xml version="1.0" encoding="UTF-8" standalone="no"?>
<!-- Created with Inkscape (http://www.inkscape.org/) -->

<svg
 xmlns:dc="http://purl.org/dc/elements/1.1/"
 xmlns:cc="http://creativecommons.org/ns#"
 xmlns:rdf="http://www.w3.org/1999/02/22-rdf-syntax-ns#"
 xmlns:svg="http://www.w3.org/2000/svg"
 xmlns="http://www.w3.org/2000/svg"
 xmlns:xlink="http://www.w3.org/1999/xlink"
 xmlns:sodipodi="http://sodipodi.sourceforge.net/DTD/sodipodi-0.dtd"
 xmlns:inkscape="http://www.inkscape.org/namespaces/inkscape"
 width="622.5116mm"
 height="506.3609mm"
 viewBox="0 0 622.51159 506.3609"
 version="1.1"
 id="svg8"
 inkscape:version="0.92.3 (2405546, 2018-03-11)"
 sodipodi:docname="WORKS.svg">
<defs
 id="defs2">
<linearGradient
 id="linearGradient2703">
<stop
 id="stop2699"
 offset="0"
 stop-color="#292b35"
 style="stop-color:#a1de93;stop-opacity:1" />
<stop
 id="stop2701"
 offset="1"
 stop-opacity="0"
 stop-color="#292b35"
 style="stop-opacity:1" />
</linearGradient>
<linearGradient
 gradientUnits="userSpaceOnUse"
 gradientTransform="matrix(0.92419047,0,0,0.92419047,-193.22654,-111.29147)"
 y2="111.79"
 y1="270.54001"
 x2="-264.57999"
 x1="-105.83"
 id="linearGradient2695"
 spreadMethod="pad">
<stop
 id="stop2691"
 offset="0"
 stop-color="#99c0ff"
 style="stop-color:#99c0ff;stop-opacity:0.94117647" />
<stop
 id="stop2693"
 offset="1"
 stop-color="#292b35" />
</linearGradient>
<linearGradient
 gradientUnits="userSpaceOnUse"
 gradientTransform="matrix(0.92419047,0,0,0.92419047,-193.22654,-111.29147)"
 y2="111.79"
 y1="270.54001"
 x2="-264.57999"
 x1="-105.83"
 id="linearGradient2689"
 spreadMethod="pad">
<stop
 id="stop2685"
 offset="0"
 stop-color="#99c0ff"
 style="stop-color:#a00000;stop-opacity:0" />
<stop
 id="stop2687"
 offset="1"
 stop-color="#292b35" />
</linearGradient>
<linearGradient
 gradientUnits="userSpaceOnUse"
 gradientTransform="matrix(0.92419047,0,0,0.92419047,-193.22654,-111.29147)"
 y2="111.79"
 y1="270.54001"
 x2="-264.57999"
 x1="-105.83"
 id="linearGradient2683"
 spreadMethod="pad">
<stop
 id="stop2679"
 offset="0"
 stop-color="#99c0ff"
 style="stop-color:#a1de93;stop-opacity:0" />
<stop
 id="stop2681"
 offset="1"
 stop-color="#292b35" />
</linearGradient>
<linearGradient
 gradientUnits="userSpaceOnUse"
 gradientTransform="matrix(0.92419047,0,0,0.92419047,-193.22654,-111.29147)"
 y2="111.79"
 y1="270.54001"
 x2="-264.57999"
 x1="-105.83"
 id="linearGradient2677"
 spreadMethod="pad">
<stop
 id="stop2673"
 offset="0"
 stop-color="#99c0ff"
 style="stop-color:#a1de93;stop-opacity:1" />
<stop
 id="stop2675"
 offset="1"
 stop-color="#292b35" />
</linearGradient>
<linearGradient
 id="linearGradient2671"
 x1="-184.52"
 x2="-133.55"
 y1="231.64"
 y2="281.76999"
 gradientTransform="translate(-160.54201,-226.29659)"
 gradientUnits="userSpaceOnUse">
<stop
 style="stop-color:#ffb300;stop-opacity:0.94117647"
 stop-color="#99c0ff"
 offset="0"
 id="stop2667" />
<stop
 offset="1"
 id="stop2669" />
</linearGradient>
<linearGradient
 id="linearGradient2665"
 x1="-184.52"
 x2="-133.55"
 y1="231.64"
 y2="281.76999"
 gradientTransform="translate(-160.54201,-226.29659)"
 gradientUnits="userSpaceOnUse">
<stop
 style="stop-color:#ffb300;stop-opacity:1"
 stop-color="#99c0ff"
 offset="0"
 id="stop2661" />
<stop
 offset="1"
 id="stop2663" />
</linearGradient>
<linearGradient
 gradientUnits="userSpaceOnUse"
 gradientTransform="matrix(0.92419047,0,0,0.92419047,-193.22654,-111.29147)"
 y2="111.79"
 y1="270.54001"
 x2="-264.57999"
 x1="-105.83"
 id="linearGradient2659"
 spreadMethod="pad">
<stop
 id="stop2655"
 offset="0"
 stop-color="#99c0ff"
 style="stop-color:#ffb300;stop-opacity:1" />
<stop
 id="stop2657"
 offset="1"
 stop-color="#292b35" />
</linearGradient>
<linearGradient
 gradientUnits="userSpaceOnUse"
 gradientTransform="matrix(0.92419047,0,0,0.92419047,-193.22654,-111.29147)"
 y2="111.79"
 y1="270.54001"
 x2="-264.57999"
 x1="-105.83"
 id="linearGradient2653"
 spreadMethod="pad">
<stop
 id="stop2649"
 offset="0"
 stop-color="#99c0ff"
 style="stop-color:#e67e22;stop-opacity:1" />
<stop
 id="stop2651"
 offset="1"
 stop-color="#292b35" />
</linearGradient>
<linearGradient
 gradientUnits="userSpaceOnUse"
 gradientTransform="matrix(0.92419047,0,0,0.92419047,-193.22654,-111.29147)"
 y2="111.79"
 y1="270.54001"
 x2="-264.57999"
 x1="-105.83"
 id="linearGradient2647"
 spreadMethod="pad">
<stop
 id="stop2643"
 offset="0"
 stop-color="#99c0ff"
 style="stop-color:#e67e22;stop-opacity:1" />
<stop
 id="stop2645"
 offset="1"
 stop-color="#292b35" />
</linearGradient>
<linearGradient
 gradientUnits="userSpaceOnUse"
 gradientTransform="matrix(0.92419047,0,0,0.92419047,-193.22654,-111.29147)"
 y2="111.79"
 y1="270.54001"
 x2="-264.57999"
 x1="-105.83"
 id="linearGradient2641"
 spreadMethod="pad">
<stop
 id="stop2637"
 offset="0"
 stop-color="#99c0ff"
 style="stop-color:#a1de93;stop-opacity:1" />
<stop
 id="stop2639"
 offset="1"
 stop-color="#292b35" />
</linearGradient>
<linearGradient
 gradientUnits="userSpaceOnUse"
 gradientTransform="matrix(0.92419047,0,0,0.92419047,-193.22654,-111.29147)"
 y2="111.79"
 y1="270.54001"
 x2="-264.57999"
 x1="-105.83"
 id="linearGradient2635">
<stop
 id="stop2631"
 offset="0"
 stop-color="#99c0ff"
 style="stop-color:#2c3e50;stop-opacity:1" />
<stop
 id="stop2633"
 offset="1"
 stop-color="#292b35" />
</linearGradient>
<linearGradient
 gradientUnits="userSpaceOnUse"
 gradientTransform="translate(-160.54201,-226.29659)"
 y2="281.76999"
 y1="231.64"
 x2="-133.55"
 x1="-184.52"
 id="linearGradient2629">
<stop
 id="stop2625"
 offset="0"
 stop-color="#99c0ff"
 style="stop-color:#ffb300;stop-opacity:1" />
<stop
 id="stop2627"
 offset="1" />
</linearGradient>
<linearGradient
 id="linearGradient2786"
 x1="-183.37"
 x2="-136.89999"
 y1="227.74001"
 y2="286.14999"
 gradientTransform="matrix(0.32744535,0,0,0.32744535,-343.80556,25.567887)"
 gradientUnits="userSpaceOnUse">
<stop
 stop-color="#99c0ff"
 offset="0"
 id="stop850" />
<stop
 offset="1"
 id="stop852" />
</linearGradient>
<linearGradient
 id="linearGradient2702"
 x1="-193.67999"
 x2="-82.634003"
 y1="143.53999"
 y2="239.33"
 gradientTransform="translate(-173.77101,-226.29659)"
 gradientUnits="userSpaceOnUse">
<stop
 stop-color="#99c0ff"
 offset="0"
 id="stop830" />
<stop
 offset="1"
 id="stop832" />
</linearGradient>
<linearGradient
 id="linearGradient2700"
 x1="-184.52"
 x2="-133.55"
 y1="231.64"
 y2="281.76999"
 gradientTransform="translate(-160.54201,-226.29659)"
 gradientUnits="userSpaceOnUse">
<stop
 stop-color="#99c0ff"
 offset="0"
 id="stop825" />
<stop
 offset="1"
 id="stop827" />
</linearGradient>
<linearGradient
 id="linearGradient2678"
 x1="-105.83"
 x2="-264.57999"
 y1="270.54001"
 y2="111.79"
 gradientTransform="matrix(0.92419047,0,0,0.92419047,-193.22654,-111.29147)"
 gradientUnits="userSpaceOnUse"
 xlink:href="#linearGradient2695">
<stop
 stop-color="#99c0ff"
 offset="0"
 id="stop820"
 style="stop-color:#ff6961;stop-opacity:1" />
<stop
 stop-color="#292b35"
 offset="1"
 id="stop822" />
</linearGradient>
<linearGradient
 id="linearGradient2750"
 x2="-211.14"
 y1="376.38"
 y2="154.12"
 gradientTransform="translate(-173.77101,-226.29659)"
 gradientUnits="userSpaceOnUse">
<stop
 stop-color="#99b3ff"
 offset="0"
 id="stop835" />
<stop
 stop-color="#292b35"
 offset="1"
 id="stop837" />
</linearGradient>
<linearGradient
 id="linearGradient2961">
<stop
 stop-color="#292b35"
 offset="0"
 id="stop815" />
<stop
 stop-color="#292b35"
 stop-opacity="0"
 offset="1"
 id="stop817" />
</linearGradient>
<linearGradient
 id="linearGradient2995"
 x1="32.278999"
 x2="-269.35001"
 y1="244.61"
 y2="365.26001"
 gradientTransform="translate(76.688,42.384)"
 gradientUnits="userSpaceOnUse"
 xlink:href="#linearGradient2961" />
<linearGradient
 id="linearGradient3007"
 x1="32.278999"
 x2="-269.35001"
 y1="244.61"
 y2="365.26001"
 gradientTransform="translate(-58.860033,-212.88279)"
 gradientUnits="userSpaceOnUse"
 xlink:href="#linearGradient2961" />
<linearGradient
 id="linearGradient2997"
 x1="32.278999"
 x2="-269.35001"
 y1="244.61"
 y2="365.26001"
 gradientTransform="translate(214.14063,-185.52068)"
 gradientUnits="userSpaceOnUse"
 xlink:href="#linearGradient2961" />
<linearGradient
 inkscape:collect="always"
 xlink:href="#linearGradient2665"
 id="linearGradient1826"
 x1="-343.95834"
 y1="191.16667"
 x2="-399.8143"
 y2="136.24617"
 gradientUnits="userSpaceOnUse"
 gradientTransform="matrix(1.5540137,0,0,1.5540141,690.77779,-252.46914)" />
<linearGradient
 inkscape:collect="always"
 xlink:href="#linearGradient2703"
 id="linearGradient2452"
 gradientUnits="userSpaceOnUse"
 gradientTransform="matrix(0.50731284,0,0,0.50731284,113.63366,-137.55945)"
 x1="-193.67999"
 y1="143.53999"
 x2="-82.634003"
 y2="239.33" />
<filter
 inkscape:collect="always"
 style="color-interpolation-filters:sRGB"
 id="filter2556"
 x="-0.099600002"
 width="1.1992"
 y="-0.099600002"
 height="1.1992">
<feGaussianBlur
 inkscape:collect="always"
 stdDeviation="9.8819798"
 id="feGaussianBlur2558" />
</filter>
<filter
 inkscape:collect="always"
 style="color-interpolation-filters:sRGB"
 id="filter2576"
 x="-0.1104"
 width="1.2208"
 y="-0.1104"
 height="1.2208">
<feGaussianBlur
 inkscape:collect="always"
 stdDeviation="4.8683336"
 id="feGaussianBlur2578" />
</filter>
<linearGradient
 inkscape:collect="always"
 xlink:href="#linearGradient2703"
 id="linearGradient2594"
 gradientUnits="userSpaceOnUse"
 gradientTransform="matrix(0.36738705,0,0,0.36738705,133.45508,-114.64652)"
 x1="-183.37"
 y1="227.74001"
 x2="-136.89999"
 y2="286.14999" />
<linearGradient
 inkscape:collect="always"
 xlink:href="#linearGradient2678"
 id="linearGradient2604"
 x1="-211.66666"
 y1="85.333336"
 x2="-264.58334"
 y2="32.416672"
 gradientUnits="userSpaceOnUse"
 gradientTransform="matrix(3.0468293,0,0,3.0468293,381.56787,64.701451)" />
<linearGradient
 inkscape:collect="always"
 xlink:href="#linearGradient2641"
 id="linearGradient2705"
 gradientUnits="userSpaceOnUse"
 gradientTransform="matrix(0.85429305,0,0,0.85429305,249.1673,-225.23946)"
 x1="-105.83"
 y1="270.54001"
 x2="-289.63962"
 y2="85.400208" />
<linearGradient
 inkscape:collect="always"
 xlink:href="#linearGradient2703"
 id="linearGradient2707"
 gradientUnits="userSpaceOnUse"
 gradientTransform="matrix(0.30268035,0,0,0.30268035,109.97672,-98.73089)"
 x1="-183.37"
 y1="227.74001"
 x2="-136.89999"
 y2="286.14999" />
<linearGradient
 inkscape:collect="always"
 xlink:href="#linearGradient2678"
 id="linearGradient2711"
 gradientUnits="userSpaceOnUse"
 gradientTransform="matrix(0.52694653,0,0,0.52694653,-239.05797,126.93128)"
 x1="-193.67999"
 y1="143.53999"
 x2="-82.634003"
 y2="239.33" />
<linearGradient
 inkscape:collect="always"
 xlink:href="#linearGradient2678"
 id="linearGradient2715"
 gradientUnits="userSpaceOnUse"
 gradientTransform="matrix(0.29482786,0,0,0.29482786,-261.80173,198.48355)"
 x1="-193.67999"
 y1="143.53999"
 x2="-82.634003"
 y2="239.33" />
<linearGradient
 id="linearGradient2995-4"
 x1="32.278999"
 x2="-269.35001"
 y1="244.61"
 y2="365.26001"
 gradientTransform="translate(-166.04976,-145.63853)"
 gradientUnits="userSpaceOnUse"
 xlink:href="#linearGradient2961" />
<filter
 inkscape:collect="always"
 style="color-interpolation-filters:sRGB"
 id="filter3065"
 x="-0.088200003"
 width="1.1763999"
 y="-0.11759999"
 height="1.2352">
<feGaussianBlur
 inkscape:collect="always"
 stdDeviation="19.446874"
 id="feGaussianBlur3067" />
</filter>
<filter
 inkscape:collect="always"
 style="color-interpolation-filters:sRGB"
 id="filter3096"
 x="-0.16320001"
 width="1.3264"
 y="-0.16320001"
 height="1.3264">
<feGaussianBlur
 inkscape:collect="always"
 stdDeviation="4.326113"
 id="feGaussianBlur3098" />
</filter>
<filter
 inkscape:collect="always"
 style="color-interpolation-filters:sRGB"
 id="filter2408"
 x="-0.054190069"
 width="1.1083801"
 y="-0.043079123"
 height="1.0861582">
<feGaussianBlur
 inkscape:collect="always"
 stdDeviation="1.0360783"
 id="feGaussianBlur2410" />
</filter>
<linearGradient
 inkscape:collect="always"
 xlink:href="#linearGradient2308"
 id="linearGradient1595"
 gradientUnits="userSpaceOnUse"
 x1="-192.88753"
 y1="4.5186267"
 x2="-192.88753"
 y2="-29.877207" />
<linearGradient
 inkscape:collect="always"
 id="linearGradient2308">
<stop
 style="stop-color:#ff2f00;stop-opacity:1"
 offset="0"
 id="stop2304" />
<stop
 style="stop-color:#ffec00;stop-opacity:1"
 offset="1"
 id="stop2306" />
</linearGradient>
<linearGradient
 inkscape:collect="always"
 xlink:href="#linearGradient2284"
 id="linearGradient2286"
 x1="300"
 y1="-249.77994"
 x2="300"
 y2="-179.77992"
 gradientUnits="userSpaceOnUse"
 gradientTransform="matrix(0.16449975,0.08258208,-0.08258208,0.16449975,-295.59326,116.81202)" />
<linearGradient
 inkscape:collect="always"
 id="linearGradient2284">
<stop
 style="stop-color:#969696;stop-opacity:1;"
 offset="0"
 id="stop2280" />
<stop
 style="stop-color:#b3b3b3;stop-opacity:1"
 offset="1"
 id="stop2282" />
</linearGradient>
<linearGradient
 inkscape:collect="always"
 xlink:href="#linearGradient1824"
 id="linearGradient1800"
 x1="50.69463"
 y1="243.98691"
 x2="61.656342"
 y2="258.89621"
 gradientUnits="userSpaceOnUse"
 gradientTransform="matrix(1.2278732,0,0,1.2278732,-6.8642542,-51.317872)" />
<linearGradient
 id="linearGradient1824"
 inkscape:collect="always">
<stop
 id="stop1820"
 offset="0"
 style="stop-color:#ffffff;stop-opacity:1;" />
<stop
 id="stop1822"
 offset="1"
 style="stop-color:#292b35;stop-opacity:1" />
</linearGradient>
<linearGradient
 inkscape:collect="always"
 xlink:href="#linearGradient1824"
 id="linearGradient1798"
 x1="51.745983"
 y1="246.1992"
 x2="62.707699"
 y2="261.10849"
 gradientUnits="userSpaceOnUse"
 gradientTransform="matrix(1.2278732,0,0,1.2278732,-8.1551852,-54.034288)" />
<linearGradient
 inkscape:collect="always"
 xlink:href="#linearGradient2308"
 id="linearGradient4639"
 gradientUnits="userSpaceOnUse"
 x1="-192.88753"
 y1="4.5186267"
 x2="-192.88753"
 y2="-29.877207" />
<linearGradient
 inkscape:collect="always"
 xlink:href="#linearGradient1824"
 id="linearGradient4641"
 gradientUnits="userSpaceOnUse"
 gradientTransform="matrix(1.2278732,0,0,1.2278732,-6.8642542,-51.317872)"
 x1="50.69463"
 y1="243.98691"
 x2="61.656342"
 y2="258.89621" />
<linearGradient
 inkscape:collect="always"
 xlink:href="#linearGradient1824"
 id="linearGradient4643"
 gradientUnits="userSpaceOnUse"
 gradientTransform="matrix(1.2278732,0,0,1.2278732,-8.1551852,-54.034288)"
 x1="51.745983"
 y1="246.1992"
 x2="62.707699"
 y2="261.10849" />
<linearGradient
 inkscape:collect="always"
 xlink:href="#linearGradient1824"
 id="linearGradient4645"
 gradientUnits="userSpaceOnUse"
 gradientTransform="matrix(1.2278732,0,0,1.2278732,-8.1551852,-54.034288)"
 x1="51.745983"
 y1="246.1992"
 x2="62.707699"
 y2="261.10849" />
<linearGradient
 inkscape:collect="always"
 xlink:href="#linearGradient1824"
 id="linearGradient4647"
 gradientUnits="userSpaceOnUse"
 gradientTransform="matrix(1.2278732,0,0,1.2278732,-6.8642542,-51.317872)"
 x1="50.69463"
 y1="243.98691"
 x2="61.656342"
 y2="258.89621" />
</defs>
<sodipodi:namedview
 id="base"
 pagecolor="#ffffff"
 bordercolor="#666666"
 borderopacity="1.0"
 inkscape:pageopacity="0.0"
 inkscape:pageshadow="2"
 inkscape:zoom="0.2314615"
 inkscape:cx="1431.0429"
 inkscape:cy="496.73057"
 inkscape:document-units="mm"
 inkscape:current-layer="layer1"
 showgrid="true"
 inkscape:pagecheckerboard="true"
 showborder="false"
 inkscape:snap-bbox="true"
 inkscape:snap-bbox-edge-midpoints="false"
 inkscape:bbox-nodes="false"
 inkscape:snap-global="false"
 inkscape:snap-bbox-midpoints="true"
 inkscape:window-width="1920"
 inkscape:window-height="1057"
 inkscape:window-x="-8"
 inkscape:window-y="-8"
 inkscape:window-maximized="1"
 fit-margin-top="0"
 fit-margin-left="0"
 fit-margin-right="0"
 fit-margin-bottom="0">
<inkscape:grid
 type="xygrid"
 id="grid815"
 spacingx="26.458333"
 spacingy="26.458333"
 originx="443.54749"
 originy="52.03937"
 visible="false" />
</sodipodi:namedview>
<metadata
 id="metadata5">
<rdf:RDF>
<cc:Work
 rdf:about="">
<dc:format>image/svg+xml</dc:format>
<dc:type
 rdf:resource="http://purl.org/dc/dcmitype/StillImage" />
<dc:title></dc:title>
</cc:Work>
</rdf:RDF>
</metadata>
<g
 inkscape:label="レイヤー 1"
 inkscape:groupmode="layer"
 id="layer1"
 transform="translate(443.54747,157.32152)">
<rect
 ry="52.916664"
 y="-99.874992"
 x="-396.87497"
 height="396.875"
 width="529.16663"
 id="rect3019"
 style="opacity:0.80199998;fill:#161f28;fill-opacity:1;fill-rule:evenodd;stroke:none;stroke-width:4.13233185;stroke-linecap:round;stroke-linejoin:round;stroke-miterlimit:4;stroke-dasharray:none;stroke-dashoffset:50.00315094;stroke-opacity:1;paint-order:fill markers stroke;filter:url(#filter3065)" />
<rect
 style="opacity:1;fill:#292b35;fill-opacity:1;fill-rule:evenodd;stroke:none;stroke-width:4.13233185;stroke-linecap:round;stroke-linejoin:round;stroke-miterlimit:4;stroke-dasharray:none;stroke-dashoffset:50.00315094;stroke-opacity:1;paint-order:fill markers stroke"
 id="rect819"
 width="529.16663"
 height="396.875"
 x="-396.87497"
 y="-99.874992"
 ry="52.916664" />
<g
 transform="matrix(0.77700693,0,0,0.77700693,416.92949,-119.29969)"
 id="g2566"
 style="opacity:0.22000002;fill:#000000;fill-opacity:1;filter:url(#filter2576)">
<ellipse
 style="opacity:1;fill:#000000;fill-opacity:1;fill-rule:evenodd;stroke:none;stroke-width:3;stroke-linecap:round;stroke-linejoin:round;stroke-miterlimit:4;stroke-dasharray:none;stroke-dashoffset:50.00315094;stroke-opacity:1;paint-order:fill markers stroke"
 id="ellipse2560"
 cx="-396.875"
 cy="164.70834"
 rx="52.916672"
 ry="52.916668" />
<circle
 id="circle2562"
 style="fill:#000000;fill-opacity:1;fill-rule:evenodd;stroke-width:1;paint-order:normal"
 r="13.229"
 cy="186.44212"
 cx="-412.74982" />
<circle
 id="circle2564"
 style="fill:#000000;fill-opacity:1;fill-rule:evenodd;stroke-width:0.55713731;paint-order:normal"
 r="7.3703694"
 cy="198.72638"
 cx="-385.3465" />
</g>
<ellipse
 style="opacity:1;fill:url(#linearGradient1826);fill-opacity:1;fill-rule:evenodd;stroke:none;stroke-width:2.33102083;stroke-linecap:round;stroke-linejoin:round;stroke-miterlimit:4;stroke-dasharray:none;stroke-dashoffset:50.00315094;stroke-opacity:1;paint-order:fill markers stroke"
 id="path1818"
 cx="115.14519"
 cy="3.4899659"
 rx="41.116623"
 ry="41.116619" />
<g
 style="opacity:0.19100001;fill:#000000;fill-opacity:1;stroke:none;filter:url(#filter2556)"
 transform="matrix(0.66445758,0,0,0.66445758,293.61917,-39.10803)"
 id="g2462">
<circle
 cx="-345.75305"
 cy="-35.133011"
 r="119.06"
 style="fill:#000000;fill-opacity:1;fill-rule:evenodd;stroke:none;stroke-width:11.90600204;stroke-linecap:round;stroke-linejoin:round;stroke-dashoffset:50.00299835;paint-order:stroke fill markers"
 id="circle2454" />
<circle
 cx="-319.29303"
 cy="31.017008"
 r="13.229"
 style="fill:#000000;fill-opacity:1;fill-rule:evenodd;stroke:none;stroke-width:1;paint-order:normal"
 id="circle2456" />
<circle
 cx="-306.06305"
 cy="-35.133011"
 r="26.458"
 style="fill:#000000;fill-opacity:1;fill-rule:evenodd;stroke:none;stroke-width:1;paint-order:normal"
 id="circle2458" />
<circle
 cx="-338.54303"
 cy="50.267006"
 r="6.0261998"
 style="fill:#000000;fill-opacity:1;fill-rule:evenodd;stroke:none;stroke-width:1;paint-order:normal"
 id="circle2460" />
</g>
<circle
 cx="79.639725"
 cy="-73.681343"
 r="79.110313"
 style="fill:url(#linearGradient2705);fill-opacity:1;fill-rule:evenodd;stroke:none;stroke-width:7.91103315;stroke-linecap:round;stroke-linejoin:round;stroke-dashoffset:50.00299835;paint-order:stroke fill markers"
 id="circle900" />
<circle
 cx="46.520191"
 cy="-40.5797"
 r="13.422483"
 style="fill:url(#linearGradient2452);fill-opacity:1;fill-rule:evenodd;stroke:none;stroke-width:0.50731277;paint-order:normal"
 id="circle904" />
<circle
 cx="61.929783"
 cy="-20.849794"
 r="4.0041542"
 style="fill:url(#linearGradient2707);fill-opacity:1;fill-rule:evenodd;stroke:none;stroke-width:0.66445756;paint-order:normal"
 id="circle910" />
<circle
 id="circle2592"
 style="fill:url(#linearGradient2594);fill-opacity:1;fill-rule:evenodd;stroke:none;stroke-width:0.80650467;paint-order:normal"
 r="4.8601584"
 cy="-20.116081"
 cx="75.136734" />
<circle
 r="31.809654"
 cy="297"
 cx="-396.875"
 id="circle2717"
 style="opacity:0.31000001;fill:#000000;fill-opacity:1;fill-rule:evenodd;stroke:none;stroke-width:6.01127386;stroke-linecap:round;stroke-linejoin:round;stroke-miterlimit:4;stroke-dasharray:none;stroke-dashoffset:50.00315094;stroke-opacity:1;paint-order:fill markers stroke;filter:url(#filter3096)"
 transform="matrix(1.7692226,0,0,1.7692226,358.20193,-251.06736)" />
<circle
 style="opacity:1;fill:url(#linearGradient2604);fill-opacity:1;fill-rule:evenodd;stroke:none;stroke-width:15.23414707;stroke-linecap:round;stroke-linejoin:round;stroke-miterlimit:4;stroke-dasharray:none;stroke-dashoffset:50.00315094;stroke-opacity:1;paint-order:fill markers stroke"
 id="path2596"
 cx="-343.95834"
 cy="244.08333"
 r="80.614021" />
<circle
 id="circle2709"
 style="fill:url(#linearGradient2711);fill-opacity:1;fill-rule:evenodd;stroke:none;stroke-width:0.52694649;paint-order:normal"
 r="13.941953"
 cy="227.66414"
 cx="-308.76886" />
<circle
 cx="-300.80511"
 cy="254.84378"
 style="fill:url(#linearGradient2715);fill-opacity:1;fill-rule:evenodd;stroke:none;stroke-width:0.29482782;paint-order:normal"
 id="circle2713"
 r="7.8005567" />
<g
 aria-label="WORKS"
 style="font-style:normal;font-weight:normal;font-size:110.45375061px;line-height:1.25;font-family:sans-serif;letter-spacing:0px;word-spacing:0px;fill:#ffffff;fill-opacity:1;stroke:none;stroke-width:2.76134396"
 id="text2745">
<path
 d="m -276.50428,137.91388 h -0.2209 c -2.76135,-0.11045 -5.19133,-1.98817 -5.96451,-4.63906 l -19.43986,-64.725896 c -1.10453,-3.313613 0.88363,-6.958586 4.3077,-7.95267 3.31361,-0.994084 6.95859,0.88363 7.95267,4.307696 l 14.02763,46.50103 12.81263,-34.13021 c 0.88363,-2.540436 3.31361,-4.197242 5.9645,-4.197242 2.65089,0 5.08088,1.656806 6.07496,4.197242 l 12.70218,34.13021 14.02763,-46.50103 c 0.99408,-3.424066 4.63906,-5.30178 8.06312,-4.307696 3.31361,0.994084 5.30178,4.639057 4.3077,7.95267 l -19.55032,64.725896 c -0.77317,2.65089 -3.20316,4.52861 -5.9645,4.63906 -2.65089,0.11045 -5.19133,-1.65681 -6.18541,-4.19724 l -13.47536,-35.897472 -13.47535,35.897472 c -0.88363,2.54043 -3.31362,4.19724 -5.96451,4.19724 z"
 style="font-style:normal;font-variant:normal;font-weight:normal;font-stretch:normal;font-family:'Moon 2.0';-inkscape-font-specification:'Moon 2.0, ';fill:#ffffff;fill-opacity:1;stroke-width:2.76134396"
 id="path3069"
 inkscape:connector-curvature="0" />
<path
 d="m -175.24235,137.91388 c -21.42802,0 -38.76926,-17.34124 -38.76926,-38.769267 0,-21.317574 17.34124,-38.769267 38.76926,-38.769267 21.31758,0 38.76927,17.451693 38.76927,38.769267 0,21.428027 -17.45169,38.769267 -38.76927,38.769267 z m 0,-64.725898 c -14.35898,0 -25.95663,11.708097 -25.95663,25.956631 0,14.358987 11.59765,25.956627 25.95663,25.956627 14.24854,0 25.95664,-11.59764 25.95664,-25.956627 0,-14.248534 -11.7081,-25.956631 -25.95664,-25.956631 z"
 style="font-style:normal;font-variant:normal;font-weight:normal;font-stretch:normal;font-family:'Moon 2.0';-inkscape-font-specification:'Moon 2.0, ';fill:#ffffff;fill-opacity:1;stroke-width:2.76134396"
 id="path3071"
 inkscape:connector-curvature="0" />
<path
 d="m -91.829046,113.61405 c 9.388569,-4.5286 15.794886,-14.138076 15.794886,-25.183451 0,-15.463525 -12.591727,-28.055253 -28.05525,-28.055253 h -21.53848 c -3.53452,0 -6.40632,2.871798 -6.40632,6.406318 v 64.725896 c 0,3.53452 2.8718,6.40632 6.40632,6.40632 3.53452,0 6.40631,-2.8718 6.40631,-6.40632 v -15.02171 h 12.37082 l 18.777142,19.43986 c 1.214991,1.32545 2.871797,1.98817 4.639057,1.98817 1.546353,0 3.203159,-0.55227 4.41815,-1.76726 2.540436,-2.54044 2.65089,-6.51677 0.220908,-9.16766 z M -119.22158,73.187982 h 15.13217 c 8.394483,0 15.132162,6.848132 15.132162,15.242617 0,8.394485 -6.737679,15.242621 -15.132162,15.242621 h -15.13217 z"
 style="font-style:normal;font-variant:normal;font-weight:normal;font-stretch:normal;font-family:'Moon 2.0';-inkscape-font-specification:'Moon 2.0, ';fill:#ffffff;fill-opacity:1;stroke-width:2.76134396"
 id="path3073"
 inkscape:connector-curvature="0" />
<path
 d="m -40.260958,96.825084 21.648936,-25.956631 c 2.209075,-2.761344 1.877713,-6.848133 -0.88363,-9.057208 -2.65089,-2.319529 -6.737679,-1.877714 -8.946754,0.773176 L -58.706734,98.813252 V 66.67121 c 0,-3.53452 -2.871797,-6.406317 -6.516771,-6.406317 -3.53452,0 -6.406318,2.871797 -6.406318,6.406317 v 64.7259 c 0,3.64497 2.871798,6.51677 6.406318,6.51677 3.644974,0 6.516771,-2.8718 6.516771,-6.51677 v -12.48128 l 9.940838,-11.929 19.992129,28.16571 c 1.988167,2.87179 6.074956,3.53452 8.946753,1.54635 2.871798,-2.09862 3.53452,-6.07496 1.546353,-9.05721 z"
 style="font-style:normal;font-variant:normal;font-weight:normal;font-stretch:normal;font-family:'Moon 2.0';-inkscape-font-specification:'Moon 2.0, ';fill:#ffffff;fill-opacity:1;stroke-width:2.76134396"
 id="path3075"
 inkscape:connector-curvature="0" />
<path
 d="m 12.558373,137.91388 c -9.7199297,0 -15.5739785,-4.08679 -18.887591,-7.4004 -4.086789,-4.3077 -6.406318,-10.05129 -6.406318,-15.90534 0,-3.53452 2.8717979,-6.40632 6.406318,-6.40632 3.53452,0 6.40631749,2.8718 6.40631749,6.40632 0,3.86588 2.65089001,10.4931 12.48127351,10.4931 9.830384,0 12.481274,-6.62722 12.481274,-10.4931 0,-5.85405 -3.203159,-7.62131 -14.027626,-10.71402 -4.8599652,-1.43589 -9.830384,-2.87179 -13.9171728,-5.743591 -5.5226875,-3.755427 -8.2840312,-9.057207 -8.2840312,-15.90534 0,-5.522687 2.2090749,-10.934921 5.9645025,-14.911256 3.092705,-3.203159 8.7258463,-6.958587 17.7830535,-6.958587 9.167662,0 14.690349,3.755428 17.783054,6.958587 3.865881,3.976335 6.074956,9.388569 6.074956,14.911256 0,3.53452 -2.871797,6.406318 -6.516771,6.406318 -3.53452,0 -6.406317,-2.871798 -6.406317,-6.406318 0,-3.313612 -2.319529,-9.057207 -10.934922,-9.057207 -8.6153922,0 -10.934921,5.743595 -10.934921,9.057207 0,4.307696 1.6568063,5.964503 12.923089,9.278115 5.080872,1.435899 10.382652,2.982251 14.690349,6.074956 5.743595,3.97634 8.615392,9.71993 8.615392,17.00988 0,5.85405 -2.319529,11.59764 -6.406317,15.90534 -3.203159,3.31361 -9.167662,7.4004 -18.887592,7.4004 z"
 style="font-style:normal;font-variant:normal;font-weight:normal;font-stretch:normal;font-family:'Moon 2.0';-inkscape-font-specification:'Moon 2.0, ';fill:#ffffff;fill-opacity:1;stroke-width:2.76134396"
 id="path3077"
 inkscape:connector-curvature="0" />
</g>
<g
 id="g2176"
 transform="matrix(0.85740722,0.15984167,-0.15984167,0.85740722,308.24266,184.36323)">
<g
 transform="translate(13.758334,-1.5875)"
 id="g1983">
<g
 id="g1862"
 transform="matrix(1.3744051,0,0,1.3744051,75.134823,-20.977799)">
<g
 style="filter:url(#filter2408)"
 id="g2370"
 transform="matrix(0.62173146,0.31212131,-0.31212131,0.62173146,-115.84289,180.92284)">
<ellipse
 ry="26.458332"
 rx="17.197916"
 cy="-25.908457"
 cx="-192.88753"
 id="ellipse2362"
 style="opacity:1;fill:#ff7600;fill-opacity:1;fill-rule:evenodd;stroke:none;stroke-width:2.79999995;stroke-linecap:round;stroke-linejoin:round;stroke-miterlimit:4;stroke-dasharray:none;stroke-opacity:1;paint-order:stroke fill markers" />
<ellipse
 style="opacity:1;fill:#ff9d00;fill-opacity:1;fill-rule:evenodd;stroke:none;stroke-width:2.57562518;stroke-linecap:round;stroke-linejoin:round;stroke-miterlimit:4;stroke-dasharray:none;stroke-opacity:1;paint-order:stroke fill markers"
 id="ellipse2364"
 cx="-192.88753"
 cy="-31.200123"
 rx="14.552082"
 ry="26.458332" />
<ellipse
 ry="26.458332"
 rx="11.906248"
 cy="-39.137623"
 cx="-192.88753"
 id="ellipse2366"
 style="opacity:1;fill:#ffea00;fill-opacity:1;fill-rule:evenodd;stroke:none;stroke-width:2.32974052;stroke-linecap:round;stroke-linejoin:round;stroke-miterlimit:4;stroke-dasharray:none;stroke-opacity:1;paint-order:stroke fill markers" />
<ellipse
 style="opacity:0.18900003;fill:url(#linearGradient4639);fill-opacity:1;fill-rule:evenodd;stroke:none;stroke-width:2.79999995;stroke-linecap:round;stroke-linejoin:round;stroke-miterlimit:4;stroke-dasharray:none;stroke-opacity:1;paint-order:stroke fill markers"
 id="ellipse2368"
 cx="-192.88753"
 cy="-25.908457"
 rx="17.197916"
 ry="26.458332" />
</g>
<path
 inkscape:connector-curvature="0"
 id="path2274"
 d="m -231.94435,97.359359 c -3.31864,-1.65921 -6.63133,-3.33063 -9.95735,-4.97492 -0.26734,0.0494 -0.0873,0.46727 -0.1512,0.66905 -0.0852,3.01645 -0.43152,6.02238 -0.80074,9.016611 0.41729,0.36125 1.01737,0.53169 1.50529,0.81927 8.23525,4.12232 16.47023,8.24521 24.70529,12.36793 0.44241,-0.24356 0.76864,-0.71786 1.16947,-1.05021 1.97203,-1.85329 3.96775,-3.6875 6.10859,-5.3451 0.0273,-0.26733 -0.41739,-0.28201 -0.58655,-0.43531 -7.31962,-3.71157 -14.65827,-7.38548 -21.99288,-11.067281 z"
 style="opacity:1;fill:#2c2c33;fill-opacity:1;fill-rule:evenodd;stroke:none;stroke-width:0.68868732;stroke-linecap:round;stroke-linejoin:round;stroke-miterlimit:4;stroke-dasharray:none;stroke-opacity:1;paint-order:stroke fill markers" />
<g
 transform="matrix(0.62173146,0.31212131,-0.31212131,0.62173146,-115.84289,180.92284)"
 id="g2318">
<ellipse
 style="opacity:1;fill:#ff7600;fill-opacity:1;fill-rule:evenodd;stroke:none;stroke-width:2.79999995;stroke-linecap:round;stroke-linejoin:round;stroke-miterlimit:4;stroke-dasharray:none;stroke-opacity:1;paint-order:stroke fill markers"
 id="path2288"
 cx="-192.88753"
 cy="-25.908457"
 rx="17.197916"
 ry="26.458332" />
<ellipse
 ry="26.458332"
 rx="14.552082"
 cy="-31.200123"
 cx="-192.88753"
 id="ellipse2290"
 style="opacity:1;fill:#ff9d00;fill-opacity:1;fill-rule:evenodd;stroke:none;stroke-width:2.57562518;stroke-linecap:round;stroke-linejoin:round;stroke-miterlimit:4;stroke-dasharray:none;stroke-opacity:1;paint-order:stroke fill markers" />
<ellipse
 style="opacity:1;fill:#ffea00;fill-opacity:1;fill-rule:evenodd;stroke:none;stroke-width:2.32974052;stroke-linecap:round;stroke-linejoin:round;stroke-miterlimit:4;stroke-dasharray:none;stroke-opacity:1;paint-order:stroke fill markers"
 id="ellipse2292"
 cx="-192.88753"
 cy="-39.137623"
 rx="11.906248"
 ry="26.458332" />
<ellipse
 ry="26.458332"
 rx="17.197916"
 cy="-25.908457"
 cx="-192.88753"
 id="ellipse2302"
 style="opacity:0.18900003;fill:url(#linearGradient1595);fill-opacity:1;fill-rule:evenodd;stroke:none;stroke-width:2.79999995;stroke-linecap:round;stroke-linejoin:round;stroke-miterlimit:4;stroke-dasharray:none;stroke-opacity:1;paint-order:stroke fill markers" />
</g>
<path
 inkscape:connector-curvature="0"
 d="m -242.06598,92.239709 32.89996,16.516421 z m 32.89996,16.516421 z m 16.94054,-74.77063 c -1.15078,-0.577715 -2.42081,-0.917869 -3.64773,-0.93902 -7.85612,-0.135409 -15.53716,4.632807 -21.41819,9.843415 -14.83822,13.146684 -24.74516,30.943444 -24.77464,49.349924 -0.006,4.11572 -0.83912,9.876631 -0.83912,9.876631 l 26.31997,13.21313 c 0,0 4.12253,-4.10926 7.41911,-6.57333 14.74317,-11.019961 23.09642,-29.596691 24.77464,-49.349941 0.66514,-7.829074 -0.0999,-16.837351 -4.90178,-23.056549 -0.74993,-0.971262 -1.78147,-1.786545 -2.93226,-2.36426 z"
 style="fill:#ffffff;fill-opacity:1;stroke:none;stroke-width:0.18406515px;stroke-linecap:butt;stroke-linejoin:miter;stroke-opacity:1"
 id="path2258" />
<path
 inkscape:connector-curvature="0"
 id="path2278"
 d="m -237.02862,94.696229 c -1.6002,-0.79822 -3.19511,-1.60743 -4.80155,-2.39292 -0.3914,-0.0463 -0.25825,0.47398 -0.3083,0.71191 -0.10935,3.01722 -0.40942,6.02061 -0.82046,9.011391 0.11608,0.36207 0.63473,0.37917 0.9148,0.59684 8.45563,4.23294 16.9112,8.46604 25.36681,12.699 0.37908,0.008 0.56902,-0.47056 0.86791,-0.66142 2.08418,-2.00875 4.22833,-3.94271 6.49976,-5.73667 0.22094,-0.39392 -0.45554,-0.44456 -0.6725,-0.62933 -9.01487,-4.53414 -18.02597,-9.075811 -27.04637,-13.598911 z"
 style="opacity:1;fill:url(#linearGradient2286);fill-opacity:1;fill-rule:evenodd;stroke:none;stroke-width:0.68868732;stroke-linecap:round;stroke-linejoin:round;stroke-miterlimit:4;stroke-dasharray:none;stroke-opacity:1;paint-order:stroke fill markers" />
<circle
 r="10.571684"
 cy="63.125851"
 cx="-206.88211"
 id="path1728"
 style="opacity:1;fill:#a0ffff;fill-opacity:1;fill-rule:evenodd;stroke:none;stroke-width:79.9119339;stroke-linecap:round;stroke-linejoin:round;stroke-miterlimit:4;stroke-dasharray:none;stroke-dashoffset:50.00315094;stroke-opacity:1;paint-order:fill markers stroke" />
<path
 sodipodi:open="true"
 d="m 71.756853,-199.0572 a 8.0479746,8.0479746 0 0 1 -9.145129,0.10774 8.0479746,8.0479746 0 0 1 -3.340792,-8.51376"
 sodipodi:end="3.3719761"
 sodipodi:start="0.9546951"
 sodipodi:ry="8.0479746"
 sodipodi:rx="8.0479746"
 sodipodi:cy="-205.62546"
 sodipodi:cx="67.10627"
 sodipodi:type="arc"
 transform="rotate(-125.04269)"
 style="opacity:1;fill:none;fill-opacity:1;fill-rule:evenodd;stroke:#ffffff;stroke-width:2.10294604;stroke-linecap:round;stroke-linejoin:round;stroke-miterlimit:4;stroke-dasharray:16.82356838, 4.20589209, 2.10294605, 4.20589209;stroke-dashoffset:3.80000019;stroke-opacity:1;paint-order:fill markers stroke"
 id="circle1730" />
<g
 transform="matrix(2.102946,0,0,2.102946,230.54201,-145.23081)"
 id="g1838">
<circle
 style="opacity:1;fill:url(#linearGradient4641);fill-opacity:1;fill-rule:evenodd;stroke:none;stroke-width:1.30818415;stroke-linecap:round;stroke-linejoin:round;stroke-miterlimit:4;stroke-dasharray:5.23273672, 2.61636836, 1.30818418, 2.61636836;stroke-dashoffset:0;stroke-opacity:1;paint-order:fill markers stroke"
 id="path1736"
 cx="60.601162"
 cy="255.41177"
 r="1.7306186"
 transform="rotate(72.740143)" />
<circle
 style="opacity:1;fill:url(#linearGradient4643);fill-opacity:1;fill-rule:evenodd;stroke:none;stroke-width:0.91316736;stroke-linecap:round;stroke-linejoin:round;stroke-miterlimit:4;stroke-dasharray:3.65266943, 1.82633471, 0.91316736, 1.82633471;stroke-dashoffset:0;stroke-opacity:1;paint-order:fill markers stroke"
 id="path1738"
 cx="63.848618"
 cy="258.98279"
 r="1.2080443"
 transform="rotate(72.740143)" />
<circle
 style="opacity:1;fill:url(#linearGradient4645);fill-opacity:1;fill-rule:evenodd;stroke:none;stroke-width:1.13889122;stroke-linecap:round;stroke-linejoin:round;stroke-miterlimit:4;stroke-dasharray:4.55556503, 2.27778251, 1.13889125, 2.27778251;stroke-dashoffset:0;stroke-opacity:1;paint-order:fill markers stroke"
 id="path1740"
 cx="62.712326"
 cy="259.77194"
 r="1.5066582"
 transform="rotate(72.740143)" />
<circle
 style="opacity:1;fill:url(#linearGradient1798);fill-opacity:1;fill-rule:evenodd;stroke:none;stroke-width:1.23563015;stroke-linecap:round;stroke-linejoin:round;stroke-miterlimit:4;stroke-dasharray:4.94252028, 2.47126013, 1.23563007, 2.47126013;stroke-dashoffset:0;stroke-opacity:1;paint-order:fill markers stroke"
 id="path1742"
 cx="65.704254"
 cy="262.53894"
 r="1.6346356"
 transform="rotate(72.740143)" />
<ellipse
 style="opacity:1;fill:url(#linearGradient4647);fill-opacity:1;fill-rule:evenodd;stroke:none;stroke-width:1.82412446;stroke-linecap:round;stroke-linejoin:round;stroke-miterlimit:4;stroke-dasharray:7.29649809, 3.64824905, 1.82412451, 3.64824905;stroke-dashoffset:0;stroke-opacity:1;paint-order:fill markers stroke"
 id="path1744"
 cx="57.761406"
 cy="252.43166"
 rx="1.322433"
 ry="1.3544272"
 transform="rotate(72.740143)" />
<ellipse
 style="opacity:1;fill:url(#linearGradient1800);fill-opacity:1;fill-rule:evenodd;stroke:none;stroke-width:1.82412446;stroke-linecap:round;stroke-linejoin:round;stroke-miterlimit:4;stroke-dasharray:7.29649809, 3.64824905, 1.82412451, 3.64824905;stroke-dashoffset:0;stroke-opacity:1;paint-order:fill markers stroke"
 id="path1746"
 cx="59.905052"
 cy="253.09288"
 rx="1.4824048"
 ry="1.5463933"
 transform="rotate(72.740143)" />
</g>
</g>
</g>
<g
 style="fill:#ffffff;fill-opacity:1"
 transform="matrix(1.1277309,0.56580195,-0.56580195,1.1277309,168.51878,160.775)"
 id="g1958">
<path
 style="fill:#ffffff;fill-opacity:1;stroke:none;stroke-width:0.26458332px;stroke-linecap:butt;stroke-linejoin:miter;stroke-opacity:1"
 d="m -312.14847,73.310284 c -0.14085,-9.859434 -23.08961,26.458337 -13.22917,26.458336 13.49376,-10e-7 5.29167,2.1e-5 13.22917,0 0.26459,-10e-7 0.26459,-7.937501 0,-26.458336 z"
 id="path1952"
 inkscape:connector-curvature="0"
 sodipodi:nodetypes="ssss" />
<path
 sodipodi:nodetypes="ssss"
 inkscape:connector-curvature="0"
 id="path1954"
 d="m -272.06409,73.310281 c 0.14085,-9.859434 23.08961,26.458339 13.22917,26.458339 -13.49376,0 -5.29167,2e-5 -13.22917,0 -0.26459,0 -0.26459,-7.937504 0,-26.458339 z"
 style="fill:#ffffff;fill-opacity:1;stroke:none;stroke-width:0.26458332px;stroke-linecap:butt;stroke-linejoin:miter;stroke-opacity:1" />
</g>
</g>
</g>
</svg>
